<?xml version="1.0" standalone="no"?><!DOCTYPE svg PUBLIC "-//W3C//DTD SVG 1.1//EN" "http://www.w3.org/Graphics/SVG/1.1/DTD/svg11.dtd"><svg t="1564031552329" class="icon" viewBox="0 0 1024 1024" version="1.1" xmlns="http://www.w3.org/2000/svg" p-id="2533" xmlns:xlink="http://www.w3.org/1999/xlink" width="48" height="48"><defs><style type="text/css"></style></defs><path d="M525.418614 159.545716c-9.383718-4.771677-20.593014-3.458775-28.758997 3.394307-0.384763 0.288572-40.256866 33.243125-84.260056 66.902736-76.605725 58.671261-98.863658 68.439742-103.411231 70.041216L200.579271 299.883975c-0.512676 0-1.057075 0.096191-1.601474 0.096191l-48.935526 0c-12.298094 0-22.354124 10.440793-22.354124 23.282263l0 371.404891c0 12.81077 9.991562 23.251563 22.354124 23.251563l176.783309 0c4.451382 1.633197 25.492604 11.753695 93.322455 69.52854 39.488363 33.56342 74.973552 66.293869 75.357292 66.677609 5.091972 4.675486 11.529591 7.141654 18.062378 7.141654 3.77907 0 7.621585-0.832971 11.144828-2.466168 9.767458-4.612041 16.045441-14.668071 16.045441-25.812899L540.757974 185.070043C540.758997 174.149319 534.769586 164.317393 525.418614 159.545716L525.418614 159.545716 525.418614 159.545716 525.418614 159.545716zM496.371044 787.765671c-11.977799-10.600429-25.429159-22.225187-39.264259-33.819247-90.664929-76.510558-113.019053-82.947154-128.295991-82.947154-0.320295 0-0.607844 0.063445-0.928139 0.063445-0.288572 0-0.608867-0.063445-0.89744-0.063445L191.291744 670.99927c-15.660678 0-19.280112-4.612041-19.280112-20.976754L172.011632 365.024577c0-11.113105 1.312902-18.031679 14.123672-18.031679l123.556037 0c14.732539 0 37.470403-6.308683 136.75157-81.986269 17.74106-13.513782 34.939767-27.02961 49.928133-38.942941L496.371044 787.765671 496.371044 787.765671 496.371044 787.765671 496.371044 787.765671zM763.563456 508.820588c0-72.122621-37.566594-135.11735-93.419669-168.904874-2.530636-1.473561-8.519024-4.067642-12.682857-4.067642-12.361539 0-22.418592 10.536984-22.418592 23.411199 0 8.615215 4.451382 16.365736 11.209296 20.432355l0 0c43.171242 25.524327 72.378447 73.820286 72.378447 129.225153 0 56.365752-30.200836 105.396445-74.619488 130.568754l0 0c-6.437619 4.163833-10.761088 11.529591-10.761088 20.048615 0 12.905938 10.088776 23.442922 22.450315 23.442922 5.219885 0.064468 11.432377-3.13848 11.432377-3.13848C724.620515 646.243447 763.563456 582.25611 763.563456 508.820588L763.563456 508.820588 763.563456 508.820588 763.563456 508.820588zM737.686089 221.00344c-4.227278-2.595105-8.326643-4.7727-13.386892-4.7727-12.298094 0-22.354124 10.473539-22.354124 23.283286 0 9.223059 5.220908 16.685008 12.746302 20.976754 82.050738 49.864688 137.231501 142.322449 137.231501 248.329808 0 106.005312-55.084573 198.432375-137.070842 248.297063-7.206122 4.067642-13.354146 11.753695-13.354146 21.201881 0 12.81077 9.992585 23.25054 22.354124 23.25054 4.89959 0 8.903787-1.921769 13.19451-4.612041 95.181803-57.83829 159.26533-165.125805 159.26533-288.201911C896.246361 386.000308 832.483128 278.842753 737.686089 221.00344L737.686089 221.00344 737.686089 221.00344 737.686089 221.00344z" p-id="2534"></path></svg>